<svg version="1.1" xmlns="http://www.w3.org/2000/svg" viewBox="0 0 817.4340099151559 591.6947862185834" width="817.4340099151559" height="591.6947862185834" filter="invert(93%) hue-rotate(180deg)">
  <!-- svg-source:excalidraw -->
  
  <defs>
    <style class="style-fonts">
      @font-face {
        font-family: "Virgil";
        src: url("https://excalidraw.com/Virgil.woff2");
      }
      @font-face {
        font-family: "Cascadia";
        src: url("https://excalidraw.com/Cascadia.woff2");
      }
      @font-face {
        font-family: "Assistant";
        src: url("https://excalidraw.com/Assistant-Regular.woff2");
      }
    </style>
    
  </defs>
  <rect x="0" y="0" width="817.4340099151559" height="591.6947862185834" fill="#ffffff"></rect><g stroke-linecap="round" transform="translate(486.75294650430556 258.1413551225) rotate(0 56.45698599454158 21.935516851382346)"><path d="M10.97 0 C29.23 -1.67, 50.08 1.64, 101.95 0 M10.97 0 C32.33 -0.9, 52.8 0.07, 101.95 0 M101.95 0 C110.77 0.41, 114.25 2.48, 112.91 10.97 M101.95 0 C108.65 0.17, 114.89 1.53, 112.91 10.97 M112.91 10.97 C114.38 17.91, 112.34 20.79, 112.91 32.9 M112.91 10.97 C113.05 17.5, 113.26 23.52, 112.91 32.9 M112.91 32.9 C111.09 40.34, 110.41 43.08, 101.95 43.87 M112.91 32.9 C112.3 40.44, 111.19 45.54, 101.95 43.87 M101.95 43.87 C70.69 44.6, 38.25 45.7, 10.97 43.87 M101.95 43.87 C82.49 44.19, 61.5 44.06, 10.97 43.87 M10.97 43.87 C3.57 42.6, -1.92 40.49, 0 32.9 M10.97 43.87 C5.81 42.25, -1.87 41.24, 0 32.9 M0 32.9 C0.06 26.74, -0.02 22.65, 0 10.97 M0 32.9 C-0.7 28.55, -0.1 22.52, 0 10.97 M0 10.97 C-0.91 5.63, 4.24 0.08, 10.97 0 M0 10.97 C0.55 4.15, 3.83 -0.75, 10.97 0" stroke="#1e1e1e" stroke-width="2" fill="none"></path></g><g transform="translate(509.78996484747995 267.57687197388236) rotate(0 33.41996765136719 12.5)"><text x="33.41996765136719" y="17.52" font-family="Virgil, Segoe UI Emoji" font-size="20px" fill="#1e1e1e" text-anchor="middle" style="white-space: pre;" direction="ltr" dominant-baseline="alphabetic">Router</text></g><g stroke-linecap="round" transform="translate(14.920396494909028 537.8237525158188) rotate(0 56.45698599454158 21.935516851382346)"><path d="M10.97 0 C27.41 1.02, 49.67 0.98, 101.95 0 M10.97 0 C37.84 0.41, 63.97 -0.74, 101.95 0 M101.95 0 C110.58 1.7, 112.99 4.72, 112.91 10.97 M101.95 0 C109.55 -0.53, 112.86 2.68, 112.91 10.97 M112.91 10.97 C112.38 18.38, 112.04 23.15, 112.91 32.9 M112.91 10.97 C112.77 19.34, 112.91 27.74, 112.91 32.9 M112.91 32.9 C113.43 39.48, 110.46 44.91, 101.95 43.87 M112.91 32.9 C113.41 39.47, 110.86 45.91, 101.95 43.87 M101.95 43.87 C81.18 41.34, 62.42 44.09, 10.97 43.87 M101.95 43.87 C69.9 44.06, 37.67 44.05, 10.97 43.87 M10.97 43.87 C2.82 42.08, -1.7 38.45, 0 32.9 M10.97 43.87 C1.87 43.58, 0.17 39.74, 0 32.9 M0 32.9 C-0.24 25.28, 0.96 18.26, 0 10.97 M0 32.9 C0.5 23.75, 0.09 15.97, 0 10.97 M0 10.97 C-0.75 4.15, 1.79 -0.55, 10.97 0 M0 10.97 C0.7 5.5, 4.61 0.92, 10.97 0" stroke="#1e1e1e" stroke-width="2" fill="none"></path></g><g transform="translate(37.95741483808342 547.2592693672011) rotate(0 33.41996765136719 12.5)"><text x="33.41996765136719" y="17.52" font-family="Virgil, Segoe UI Emoji" font-size="20px" fill="#1e1e1e" text-anchor="middle" style="white-space: pre;" direction="ltr" dominant-baseline="alphabetic">Router</text></g><g stroke-linecap="round" transform="translate(14.13310059917626 10) rotate(0 56.45698599454158 21.935516851382346)"><path d="M10.97 0 C35.47 1.06, 57.74 -0.26, 101.95 0 M10.97 0 C29.65 0.91, 50.91 -0.97, 101.95 0 M101.95 0 C108.86 1.52, 111.8 3.9, 112.91 10.97 M101.95 0 C108.25 0.44, 113.92 2.77, 112.91 10.97 M112.91 10.97 C114.16 17.76, 112.35 23.38, 112.91 32.9 M112.91 10.97 C113.36 20.08, 113.31 28.89, 112.91 32.9 M112.91 32.9 C113.91 40.82, 109.3 44.06, 101.95 43.87 M112.91 32.9 C112.87 39.13, 109.2 42.16, 101.95 43.87 M101.95 43.87 C80.21 43.22, 59.74 44.15, 10.97 43.87 M101.95 43.87 C71.59 42.66, 41.62 42.62, 10.97 43.87 M10.97 43.87 C4.54 43.66, 1.81 38.44, 0 32.9 M10.97 43.87 C5.27 44.8, 1.98 40.92, 0 32.9 M0 32.9 C0.08 26.52, -1.42 18.13, 0 10.97 M0 32.9 C-0.78 27.05, -1.05 20.5, 0 10.97 M0 10.97 C-1.53 4.73, 5.32 -0.31, 10.97 0 M0 10.97 C2.25 3.15, 4.22 1.5, 10.97 0" stroke="#1e1e1e" stroke-width="2" fill="none"></path></g><g transform="translate(37.170118942350655 19.435516851382317) rotate(0 33.41996765136719 12.5)"><text x="33.41996765136719" y="17.52" font-family="Virgil, Segoe UI Emoji" font-size="20px" fill="#1e1e1e" text-anchor="middle" style="white-space: pre;" direction="ltr" dominant-baseline="alphabetic">Router</text></g><g stroke-linecap="round" transform="translate(694.5200379260727 256.84037846982756) rotate(0 56.45698599454158 21.935516851382346)"><path d="M10.97 0 C38.24 1.36, 61.58 1.39, 101.95 0 M10.97 0 C30.1 -1.05, 48.07 -1.28, 101.95 0 M101.95 0 C109.9 0.76, 113.26 3.03, 112.91 10.97 M101.95 0 C110.35 1.88, 114.07 3.83, 112.91 10.97 M112.91 10.97 C112.69 18.14, 111.94 23.08, 112.91 32.9 M112.91 10.97 C113.91 15.51, 112.08 20.72, 112.91 32.9 M112.91 32.9 C111.05 39.01, 109.44 44.62, 101.95 43.87 M112.91 32.9 C111.84 42.49, 109.73 42.26, 101.95 43.87 M101.95 43.87 C77.9 45.12, 55.95 43.58, 10.97 43.87 M101.95 43.87 C71.29 43.86, 40.68 44.37, 10.97 43.87 M10.97 43.87 C3.96 42.65, -1.86 42.19, 0 32.9 M10.97 43.87 C3.78 45.69, -0.95 41.35, 0 32.9 M0 32.9 C0.68 29.85, 1.27 24.55, 0 10.97 M0 32.9 C-0.21 24.74, 0.61 16.05, 0 10.97 M0 10.97 C1.44 3.01, 2.97 0.54, 10.97 0 M0 10.97 C-1.49 1.38, 3.89 -2.05, 10.97 0" stroke="#1e1e1e" stroke-width="2" fill="none"></path></g><g transform="translate(721.0070532174893 266.2758953212099) rotate(0 29.969970703125 12.5)"><text x="29.969970703125" y="17.52" font-family="Virgil, Segoe UI Emoji" font-size="20px" fill="#1e1e1e" text-anchor="middle" style="white-space: pre;" direction="ltr" dominant-baseline="alphabetic">Switch</text></g><g stroke-linecap="round" transform="translate(258.2900476130351 258.9970860092691) rotate(0 56.45698599454158 21.935516851382346)"><path d="M10.97 0 C33.5 0.79, 56.21 0.2, 101.95 0 M10.97 0 C34.69 -0.06, 58.51 -0.19, 101.95 0 M101.95 0 C110.66 1.41, 114.36 1.81, 112.91 10.97 M101.95 0 C107.29 0.03, 110.73 5.72, 112.91 10.97 M112.91 10.97 C110.89 17.49, 111.61 22.92, 112.91 32.9 M112.91 10.97 C112.07 17.61, 113.2 24.6, 112.91 32.9 M112.91 32.9 C111.68 38.43, 108.58 45.54, 101.95 43.87 M112.91 32.9 C113.86 41.65, 109.24 44.51, 101.95 43.87 M101.95 43.87 C67.1 41.71, 36.13 45.24, 10.97 43.87 M101.95 43.87 C78.98 42.19, 56.37 43.84, 10.97 43.87 M10.97 43.87 C2.83 45.12, 0.99 39.09, 0 32.9 M10.97 43.87 C1.84 41.84, -1.79 40.25, 0 32.9 M0 32.9 C-0.74 27.75, -1.63 22.01, 0 10.97 M0 32.9 C-0.16 27.39, -0.12 20.36, 0 10.97 M0 10.97 C-0.45 5.47, 4.87 -0.38, 10.97 0 M0 10.97 C1.05 1.51, 3.25 -0.68, 10.97 0" stroke="#1e1e1e" stroke-width="2" fill="none"></path></g><g transform="translate(274.1070723649009 268.4326028606514) rotate(0 40.63996124267578 12.5)"><text x="40.63996124267578" y="17.52" font-family="Virgil, Segoe UI Emoji" font-size="20px" fill="#1e1e1e" text-anchor="middle" style="white-space: pre;" direction="ltr" dominant-baseline="alphabetic">Switch-A</text></g><g stroke-linecap="round" transform="translate(10 112.21561744544533) rotate(0 56.45698599454158 21.935516851382346)"><path d="M10.97 0 C37.36 0.14, 65.31 0.58, 101.95 0 M10.97 0 C43.62 -0.64, 77.8 0.89, 101.95 0 M101.95 0 C110.42 -0.58, 113.45 3.7, 112.91 10.97 M101.95 0 C109.57 -1.97, 111.61 2.19, 112.91 10.97 M112.91 10.97 C114.72 17.04, 114.32 24.67, 112.91 32.9 M112.91 10.97 C112.72 19.99, 112.83 27.64, 112.91 32.9 M112.91 32.9 C114.64 38.39, 108.48 45.28, 101.95 43.87 M112.91 32.9 C114.08 41.21, 108.54 42.37, 101.95 43.87 M101.95 43.87 C73.08 42.81, 47.78 43.89, 10.97 43.87 M101.95 43.87 C76.57 44.53, 50.76 42.97, 10.97 43.87 M10.97 43.87 C2.56 43.79, -0.46 38.32, 0 32.9 M10.97 43.87 C2.11 46.13, -2.25 39.64, 0 32.9 M0 32.9 C0.44 24.67, -0.63 18.91, 0 10.97 M0 32.9 C0.34 26.99, -1.05 20.2, 0 10.97 M0 10.97 C-1.29 2.92, 2.23 -1.99, 10.97 0 M0 10.97 C-1.6 5.39, 5.83 -0.15, 10.97 0" stroke="#1e1e1e" stroke-width="2" fill="none"></path></g><g transform="translate(26.867027803623614 121.65113429682765) rotate(0 39.58995819091797 12.5)"><text x="39.58995819091797" y="17.52" font-family="Virgil, Segoe UI Emoji" font-size="20px" fill="#1e1e1e" text-anchor="middle" style="white-space: pre;" direction="ltr" dominant-baseline="alphabetic">Switch-H</text></g><g stroke-linecap="round" transform="translate(18.766458757739997 436.08450810814156) rotate(0 56.45698599454158 21.935516851382346)"><path d="M10.97 0 C42.3 1.09, 74.39 1.56, 101.95 0 M10.97 0 C33.13 -0.28, 55.01 0.64, 101.95 0 M101.95 0 C107.78 0.42, 111.21 5.59, 112.91 10.97 M101.95 0 C110.66 -2.17, 110.65 3.07, 112.91 10.97 M112.91 10.97 C112.77 20.47, 111.26 27.34, 112.91 32.9 M112.91 10.97 C113.04 19.8, 113.61 27.13, 112.91 32.9 M112.91 32.9 C111.83 38.4, 108.69 45.17, 101.95 43.87 M112.91 32.9 C111.12 39.06, 108.08 44.93, 101.95 43.87 M101.95 43.87 C68.89 42.58, 38.56 43.34, 10.97 43.87 M101.95 43.87 C75.98 44.01, 49.39 42.73, 10.97 43.87 M10.97 43.87 C5.02 44.24, -1.23 38.75, 0 32.9 M10.97 43.87 C3.39 42.22, -0.65 41.88, 0 32.9 M0 32.9 C-1.19 25.44, 1.51 15.25, 0 10.97 M0 32.9 C0.82 27.11, 0.62 19.62, 0 10.97 M0 10.97 C-1.09 4.94, 2.6 -1.27, 10.97 0 M0 10.97 C-1.52 3.01, 4.77 0.01, 10.97 0" stroke="#1e1e1e" stroke-width="2" fill="none"></path></g><g transform="translate(33.87348442513314 445.5200249595239) rotate(0 41.34996032714844 12.5)"><text x="41.34996032714844" y="17.52" font-family="Virgil, Segoe UI Emoji" font-size="20px" fill="#1e1e1e" text-anchor="middle" style="white-space: pre;" direction="ltr" dominant-baseline="alphabetic">Switch-B</text></g><g stroke-linecap="round"><g transform="translate(130.6538382163326 433.9285695520878) rotate(0 70.32526107940464 -65.49584400331645)"><path d="M-0.99 0.79 C22.55 -21.27, 117.17 -109.6, 140.94 -131.58 M0.69 0.15 C24.12 -21.81, 116.7 -108.68, 140.14 -130.36" stroke="#1e1e1e" stroke-width="2" fill="none"></path></g></g><mask></mask><g stroke-linecap="round"><g transform="translate(120.79125611129166 153.14186920291314) rotate(0 82.08892623317536 52.961989319888545)"><path d="M0.44 0.15 C27.8 17.53, 136.97 87.37, 164.26 104.93 M-0.8 -0.81 C26.41 16.62, 135.98 88.05, 163.36 105.95" stroke="#1e1e1e" stroke-width="2" fill="none"></path></g></g><mask></mask><g stroke-linecap="round"><g transform="translate(370.6549054619036 282.1863454560077) rotate(0 57.018564020301596 0)"><path d="M-0.9 -0.06 C18.14 0.2, 95.6 0.6, 114.58 0.73 M0.83 -1.13 C19.72 -1.14, 94.84 -1, 113.91 -1" stroke="#1e1e1e" stroke-width="2" fill="none"></path></g></g><mask></mask><g transform="translate(231.96110108819687 202.56582813036096) rotate(0 38.74998474121088 12.5)"><text x="0" y="17.52" font-family="Virgil, Segoe UI Emoji" font-size="20px" fill="#1e1e1e" text-anchor="start" style="white-space: pre;" direction="ltr" dominant-baseline="alphabetic">VLAN 10</text></g><g transform="translate(158.2311377070332 420.6065346909212) rotate(0 38.74998474121094 12.5)"><text x="0" y="17.52" font-family="Virgil, Segoe UI Emoji" font-size="20px" fill="#1e1e1e" text-anchor="start" style="white-space: pre;" direction="ltr" dominant-baseline="alphabetic">VLAN 10</text></g><g transform="translate(235.55686638677457 343.31435553182644) rotate(0 43.15998077392578 12.5)"><text x="0" y="17.52" font-family="Virgil, Segoe UI Emoji" font-size="20px" fill="#1e1e1e" text-anchor="start" style="white-space: pre;" direction="ltr" dominant-baseline="alphabetic">VLAN 20</text></g><g transform="translate(135.11550364474874 130.37690702001618) rotate(0 43.15998077392578 12.5)"><text x="0" y="17.52" font-family="Virgil, Segoe UI Emoji" font-size="20px" fill="#1e1e1e" text-anchor="start" style="white-space: pre;" direction="ltr" dominant-baseline="alphabetic">VLAN 20</text></g><g transform="translate(612.5985419804804 226.19514294958498) rotate(0 55.509971618652344 12.5)"><text x="0" y="17.52" font-family="Virgil, Segoe UI Emoji" font-size="20px" fill="#1e1e1e" text-anchor="start" style="white-space: pre;" direction="ltr" dominant-baseline="alphabetic">10.10.1.0/24</text></g><g stroke-linecap="round"><g transform="translate(601.2975653278079 278.59058015742977) rotate(0 46.231268124569056 -0.2568403784698319)"><path d="M0.16 0.26 C15.66 0.12, 76.71 0.45, 92.04 0.26 M-1.21 -0.64 C14.17 -0.61, 75.47 -1.6, 90.87 -1.46" stroke="#1e1e1e" stroke-width="2" fill="none"></path></g></g><mask></mask><g transform="translate(368.0865016772043 225.6814621926453) rotate(0 65.09996032714844 12.5)"><text x="0" y="17.52" font-family="Virgil, Segoe UI Emoji" font-size="20px" fill="#1e1e1e" text-anchor="start" style="white-space: pre;" direction="ltr" dominant-baseline="alphabetic">10.80.2.2/24</text></g><g transform="translate(373.22330924660105 316.60295617096426) rotate(0 55.749969482421875 12.5)"><text x="0" y="17.52" font-family="Virgil, Segoe UI Emoji" font-size="20px" fill="#1e1e1e" text-anchor="start" style="white-space: pre;" direction="ltr" dominant-baseline="alphabetic">10.10.2.1/24</text></g><g stroke-linecap="round"><g transform="translate(64.50117432586842 112.15801490898156) rotate(0 -0.25684037846980345 -28.509282010150855)"><path d="M-0.48 0.8 C-0.3 -8.7, 0.75 -48.17, 0.58 -57.64 M1.47 0.18 C1.64 -9.12, 0.31 -46.76, 0.21 -56.42" stroke="#1e1e1e" stroke-width="2" fill="none"></path></g></g><mask></mask><g stroke-linecap="round"><g transform="translate(76.82951249242012 480.9807983916538) rotate(0 -0.25684037846980345 28.76612238862066)"><path d="M-0.01 -1.17 C-0.32 8.46, -0.74 47.24, -0.9 57.02 M-1.47 0.82 C-2.06 10.69, -1.96 48.62, -2.05 58.3" stroke="#1e1e1e" stroke-width="2" fill="none"></path></g></g><mask></mask><g transform="translate(113.81452699207478 509.7469207802755) rotate(0 60.15996551513672 12.5)"><text x="0" y="17.52" font-family="Virgil, Segoe UI Emoji" font-size="20px" fill="#1e1e1e" text-anchor="start" style="white-space: pre;" direction="ltr" dominant-baseline="alphabetic">10.10.2.2/24</text></g><g transform="translate(121.00605758922984 71.57723511074971) rotate(0 60.689964294433594 12.5)"><text x="0" y="17.52" font-family="Virgil, Segoe UI Emoji" font-size="20px" fill="#1e1e1e" text-anchor="start" style="white-space: pre;" direction="ltr" dominant-baseline="alphabetic">10.80.2.1/24</text></g></svg>