<svg version="1.1" xmlns="http://www.w3.org/2000/svg" viewBox="0 0 976.3262309169389 702.9422691993004" width="976.3262309169389" height="702.9422691993004" filter="invert(93%) hue-rotate(180deg)">
  <!-- svg-source:excalidraw -->
  
  <defs>
    <style class="style-fonts">
      @font-face {
        font-family: "Virgil";
        src: url("https://excalidraw.com/Virgil.woff2");
      }
      @font-face {
        font-family: "Cascadia";
        src: url("https://excalidraw.com/Cascadia.woff2");
      }
      @font-face {
        font-family: "Assistant";
        src: url("https://excalidraw.com/Assistant-Regular.woff2");
      }
    </style>
    
  </defs>
  <rect x="0" y="0" width="976.3262309169389" height="702.9422691993004" fill="#ffffff"></rect><g stroke-linecap="round" transform="translate(455.8960018768406 150.60527975762813) rotate(0 50.38519463680802 20.316215276872924)"><path d="M10.16 0 C37.39 0.24, 64.99 -1.25, 90.61 0 M10.16 0 C34.29 0.33, 58.18 -0.22, 90.61 0 M90.61 0 C96.87 1.78, 98.88 2.83, 100.77 10.16 M90.61 0 C99.2 0.6, 102.56 3.41, 100.77 10.16 M100.77 10.16 C102.45 14.81, 101.11 18.03, 100.77 30.47 M100.77 10.16 C101.1 15.54, 101.45 18.84, 100.77 30.47 M100.77 30.47 C102.54 37.84, 98.96 38.71, 90.61 40.63 M100.77 30.47 C98.69 38.84, 96.62 41.65, 90.61 40.63 M90.61 40.63 C63.62 39.24, 35 40.03, 10.16 40.63 M90.61 40.63 C72.91 41.36, 54.64 40.43, 10.16 40.63 M10.16 40.63 C3.81 39.19, -1.24 35.72, 0 30.47 M10.16 40.63 C4.43 41.49, -1.92 36.47, 0 30.47 M0 30.47 C0.47 27.36, 0.6 22.09, 0 10.16 M0 30.47 C0.16 24.05, -0.91 16.08, 0 10.16 M0 10.16 C-1.42 1.43, 3.53 0.03, 10.16 0 M0 10.16 C0.88 5.42, 2.74 1.22, 10.16 0" stroke="#1e1e1e" stroke-width="2" fill="none"></path></g><g transform="translate(465.64123527097274 158.42149503450105) rotate(0 40.63996124267578 12.5)"><text x="40.63996124267578" y="17.52" font-family="Virgil, Segoe UI Emoji" font-size="20px" fill="#1e1e1e" text-anchor="middle" style="white-space: pre;" direction="ltr" dominant-baseline="alphabetic">Switch-A</text></g><g stroke-linecap="round" transform="translate(570.4087494315964 213.0672487465311) rotate(0 50.38519463680802 20.316215276872924)"><path d="M10.16 0 C34.25 1.94, 59.81 -0.55, 90.61 0 M10.16 0 C31.26 0.33, 51.17 -0.8, 90.61 0 M90.61 0 C98.03 -0.46, 101.17 4.6, 100.77 10.16 M90.61 0 C95.09 1.15, 99.16 3.56, 100.77 10.16 M100.77 10.16 C102.28 19.32, 100.56 24.01, 100.77 30.47 M100.77 10.16 C99.94 18.1, 101.83 23.36, 100.77 30.47 M100.77 30.47 C100.19 39.1, 98.66 39.89, 90.61 40.63 M100.77 30.47 C100.51 36.42, 96.96 38.56, 90.61 40.63 M90.61 40.63 C64.26 39.49, 42.97 40.79, 10.16 40.63 M90.61 40.63 C68.34 40.8, 45.43 40.15, 10.16 40.63 M10.16 40.63 C3.32 41.41, 0.3 35.34, 0 30.47 M10.16 40.63 C4.47 38.98, -1.79 38.65, 0 30.47 M0 30.47 C1.82 24.52, -0.1 16.19, 0 10.16 M0 30.47 C0.56 24.16, 0.81 18.35, 0 10.16 M0 10.16 C-0.52 5.08, 1.41 1.48, 10.16 0 M0 10.16 C0.14 1.29, 1.59 1.6, 10.16 0" stroke="#1e1e1e" stroke-width="2" fill="none"></path></g><g transform="translate(579.4439837412559 220.88346402340397) rotate(0 41.34996032714844 12.5)"><text x="41.34996032714844" y="17.52" font-family="Virgil, Segoe UI Emoji" font-size="20px" fill="#1e1e1e" text-anchor="middle" style="white-space: pre;" direction="ltr" dominant-baseline="alphabetic">Switch-B</text></g><g stroke-linecap="round" transform="translate(571.5447853110751 312.888751834479) rotate(0 50.38519463680802 20.316215276872924)"><path d="M10.16 0 C36.86 -0.33, 61.7 1.02, 90.61 0 M10.16 0 C35.76 0.76, 62.32 -0.48, 90.61 0 M90.61 0 C98.12 -1.47, 100.26 5.09, 100.77 10.16 M90.61 0 C98.49 1.9, 101.07 4, 100.77 10.16 M100.77 10.16 C99.1 15.32, 102.58 20.48, 100.77 30.47 M100.77 10.16 C100.1 17.57, 99.71 22.77, 100.77 30.47 M100.77 30.47 C99.76 36.83, 97.51 39.84, 90.61 40.63 M100.77 30.47 C98.96 37.36, 96.63 41.38, 90.61 40.63 M90.61 40.63 C71.45 40.3, 48.28 40.15, 10.16 40.63 M90.61 40.63 C72.92 40.69, 57.56 40.91, 10.16 40.63 M10.16 40.63 C4.68 42.05, 0.76 35.28, 0 30.47 M10.16 40.63 C2.18 38.47, -0.08 37.42, 0 30.47 M0 30.47 C-0.77 24.07, 1.66 20.25, 0 10.16 M0 30.47 C-0.43 23.25, -0.3 18.45, 0 10.16 M0 10.16 C-0.21 4.62, 4.97 0.93, 10.16 0 M0 10.16 C1.75 4.94, 1.69 0.83, 10.16 0" stroke="#1e1e1e" stroke-width="2" fill="none"></path></g><g transform="translate(581.4100214517892 320.704967111352) rotate(0 40.51995849609375 12.5)"><text x="40.51995849609375" y="17.52" font-family="Virgil, Segoe UI Emoji" font-size="20px" fill="#1e1e1e" text-anchor="middle" style="white-space: pre;" direction="ltr" dominant-baseline="alphabetic">Switch-C</text></g><g stroke-linecap="round" transform="translate(573.5536823355766 426.66084696197544) rotate(0 50.38519463680802 20.316215276872924)"><path d="M10.16 0 C29.99 -1.11, 47.01 -2.19, 90.61 0 M10.16 0 C36.31 -0.15, 64.56 -0.07, 90.61 0 M90.61 0 C98.5 0.87, 100.53 1.49, 100.77 10.16 M90.61 0 C98.29 -0.2, 100.2 5.3, 100.77 10.16 M100.77 10.16 C99.03 18.03, 101.73 20.16, 100.77 30.47 M100.77 10.16 C101.35 17.12, 101.18 22.52, 100.77 30.47 M100.77 30.47 C100.9 36.88, 96.04 41.17, 90.61 40.63 M100.77 30.47 C100.87 35.56, 95.38 38.45, 90.61 40.63 M90.61 40.63 C72.79 40.47, 50.77 42.63, 10.16 40.63 M90.61 40.63 C59.95 41.01, 29.6 39.51, 10.16 40.63 M10.16 40.63 C3.2 41.08, -0.92 35.59, 0 30.47 M10.16 40.63 C3.73 41.29, -0.48 38.06, 0 30.47 M0 30.47 C-1.4 23.67, -0.28 17.72, 0 10.16 M0 30.47 C-0.04 25.52, -0.49 22.28, 0 10.16 M0 10.16 C-1.54 2.62, 4.58 -1.99, 10.16 0 M0 10.16 C0.77 5.35, 2.26 1.47, 10.16 0" stroke="#1e1e1e" stroke-width="2" fill="none"></path></g><g transform="translate(582.0589178659392 434.4770622388484) rotate(0 41.87995910644531 12.5)"><text x="41.87995910644531" y="17.52" font-family="Virgil, Segoe UI Emoji" font-size="20px" fill="#1e1e1e" text-anchor="middle" style="white-space: pre;" direction="ltr" dominant-baseline="alphabetic">Switch-D</text></g><g stroke-linecap="round" transform="translate(449.7213593827363 491.2582441211237) rotate(0 50.38519463680802 20.316215276872924)"><path d="M10.16 0 C37.4 1.01, 64.71 0.76, 90.61 0 M10.16 0 C35.62 -0.6, 61.67 0.34, 90.61 0 M90.61 0 C96.92 -0.23, 102.2 3.6, 100.77 10.16 M90.61 0 C95.19 -0.04, 100.59 2.48, 100.77 10.16 M100.77 10.16 C100.95 18.39, 99.82 23.11, 100.77 30.47 M100.77 10.16 C99.85 15.23, 99.94 20.64, 100.77 30.47 M100.77 30.47 C99.69 37.87, 96.86 39.06, 90.61 40.63 M100.77 30.47 C99.61 37.27, 95.8 42.23, 90.61 40.63 M90.61 40.63 C66 40.01, 43.43 39.58, 10.16 40.63 M90.61 40.63 C61.15 40.99, 29.81 40.59, 10.16 40.63 M10.16 40.63 C2.8 39.21, 1.18 36.18, 0 30.47 M10.16 40.63 C1.88 40.45, 0.24 38.15, 0 30.47 M0 30.47 C0.59 26.14, -0.46 20.05, 0 10.16 M0 30.47 C0.28 25.48, 0.82 21.38, 0 10.16 M0 10.16 C0.04 3.11, 1.46 0.91, 10.16 0 M0 10.16 C0.01 4.43, 5.08 -1.75, 10.16 0" stroke="#1e1e1e" stroke-width="2" fill="none"></path></g><g transform="translate(459.28659247169287 499.0744593979966) rotate(0 40.81996154785156 12.5)"><text x="40.81996154785156" y="17.52" font-family="Virgil, Segoe UI Emoji" font-size="20px" fill="#1e1e1e" text-anchor="middle" style="white-space: pre;" direction="ltr" dominant-baseline="alphabetic">Switch-E</text></g><g stroke-linecap="round" transform="translate(308.44303839250824 422.0734979778012) rotate(0 50.38519463680802 20.316215276872924)"><path d="M10.16 0 C33.87 -1.26, 57.43 -2.35, 90.61 0 M10.16 0 C31.97 -0.56, 54.05 -0.46, 90.61 0 M90.61 0 C96.31 1.54, 102.62 2.57, 100.77 10.16 M90.61 0 C96.9 -0.58, 101.74 5.02, 100.77 10.16 M100.77 10.16 C100.11 19.48, 102.38 25.45, 100.77 30.47 M100.77 10.16 C100.21 14.97, 100.68 19.48, 100.77 30.47 M100.77 30.47 C100.71 37.93, 95.49 41.12, 90.61 40.63 M100.77 30.47 C101.63 35.72, 95.8 40.12, 90.61 40.63 M90.61 40.63 C63.08 41.33, 35.75 40.35, 10.16 40.63 M90.61 40.63 C65.17 40.91, 37.79 40.56, 10.16 40.63 M10.16 40.63 C2.31 39.47, -1.75 37.09, 0 30.47 M10.16 40.63 C4.24 39.56, -1.24 35.44, 0 30.47 M0 30.47 C-1.85 24.42, -1.86 19.33, 0 10.16 M0 30.47 C0.73 23.11, 0.33 14.88, 0 10.16 M0 10.16 C-0.8 4.57, 2.34 1.47, 10.16 0 M0 10.16 C-1.37 1.88, 4.31 0.69, 10.16 0" stroke="#1e1e1e" stroke-width="2" fill="none"></path></g><g transform="translate(319.0082714814647 429.8897132546742) rotate(0 39.81996154785156 12.5)"><text x="39.81996154785156" y="17.52" font-family="Virgil, Segoe UI Emoji" font-size="20px" fill="#1e1e1e" text-anchor="middle" style="white-space: pre;" direction="ltr" dominant-baseline="alphabetic">Switch-F</text></g><g stroke-linecap="round" transform="translate(300.715110151466 313.8873097041857) rotate(0 50.38519463680802 20.316215276872924)"><path d="M10.16 0 C28.68 -0.06, 46.82 2.2, 90.61 0 M10.16 0 C38.21 0.22, 65.06 0.37, 90.61 0 M90.61 0 C97.79 1.08, 102.4 1.6, 100.77 10.16 M90.61 0 C95.87 -1.13, 102.24 3.78, 100.77 10.16 M100.77 10.16 C101.12 14.59, 100.3 17.81, 100.77 30.47 M100.77 10.16 C101.18 16.58, 101.73 23.32, 100.77 30.47 M100.77 30.47 C101.64 35.99, 97.72 40.18, 90.61 40.63 M100.77 30.47 C103.02 35.76, 97.66 40.27, 90.61 40.63 M90.61 40.63 C66.29 41.42, 38.97 40.96, 10.16 40.63 M90.61 40.63 C58.49 39.68, 27.01 39.63, 10.16 40.63 M10.16 40.63 C1.91 41.84, 0.71 35.29, 0 30.47 M10.16 40.63 C1.83 42.7, -0.75 35.82, 0 30.47 M0 30.47 C1.28 22.83, 1.88 17.74, 0 10.16 M0 30.47 C0.46 26, -0.48 20.87, 0 10.16 M0 10.16 C0.55 3.81, 3.39 -0.05, 10.16 0 M0 10.16 C1.52 2.88, 3.13 0.75, 10.16 0" stroke="#1e1e1e" stroke-width="2" fill="none"></path></g><g transform="translate(309.13034171454353 321.7035249810586) rotate(0 41.96996307373047 12.5)"><text x="41.96996307373047" y="17.52" font-family="Virgil, Segoe UI Emoji" font-size="20px" fill="#1e1e1e" text-anchor="middle" style="white-space: pre;" direction="ltr" dominant-baseline="alphabetic">Switch-G</text></g><g stroke-linecap="round" transform="translate(314.85162674104254 218.1106711992997) rotate(0 50.38519463680802 20.316215276872924)"><path d="M10.16 0 C38.13 0.15, 63.32 0.09, 90.61 0 M10.16 0 C36.11 -1.41, 62.24 -1.58, 90.61 0 M90.61 0 C97.2 -1.46, 102.63 4.84, 100.77 10.16 M90.61 0 C95.19 0.11, 99.92 4.02, 100.77 10.16 M100.77 10.16 C102.72 15.78, 101.31 19.77, 100.77 30.47 M100.77 10.16 C100.26 17.48, 101.19 24.39, 100.77 30.47 M100.77 30.47 C99.15 36.78, 95.53 41.75, 90.61 40.63 M100.77 30.47 C98.59 35.18, 97.71 41.73, 90.61 40.63 M90.61 40.63 C62.08 42.23, 35.45 41.07, 10.16 40.63 M90.61 40.63 C60.49 41.51, 31.59 41.16, 10.16 40.63 M10.16 40.63 C2.25 41.74, -1.29 37.33, 0 30.47 M10.16 40.63 C2.84 41.42, -1.91 38.91, 0 30.47 M0 30.47 C-0.39 22.34, -0.75 16.56, 0 10.16 M0 30.47 C-0.97 24.18, -0.32 18.01, 0 10.16 M0 10.16 C1.73 4.03, 4 -0.47, 10.16 0 M0 10.16 C1.42 2.57, 2.71 -1.1, 10.16 0" stroke="#1e1e1e" stroke-width="2" fill="none"></path></g><g transform="translate(325.6468631869326 225.92688647617268) rotate(0 39.58995819091797 12.5)"><text x="39.58995819091797" y="17.52" font-family="Virgil, Segoe UI Emoji" font-size="20px" fill="#1e1e1e" text-anchor="middle" style="white-space: pre;" direction="ltr" dominant-baseline="alphabetic">Switch-H</text></g><g stroke-linecap="round"><g transform="translate(554.6096786351808 188.47271247943053) rotate(0 20.68258294788268 12.409549768729676)"><path d="M1.1 1.12 C7.85 5.31, 33.56 22.11, 40.39 25.88 M0.22 0.66 C7.34 4.48, 35.68 20.34, 42.59 24.31" stroke="#1e1e1e" stroke-width="2" fill="none"></path></g></g><mask></mask><g stroke-linecap="round"><g transform="translate(623.7485987752458 254.65697791265535) rotate(0 0 29.25108159771986)"><path d="M-0.09 -0.42 C0.03 9.15, -0.48 48.68, -0.32 58.35 M-1.6 -1.69 C-1.57 8, -1.8 49.79, -1.43 59.8" stroke="#1e1e1e" stroke-width="2" fill="none"></path></g></g><mask></mask><g stroke-linecap="round"><g transform="translate(619.0211512443014 354.52430700386043) rotate(0 0.2954654706838937 35.85366196238169)"><path d="M-1.01 1.08 C-1.18 13.21, -0.43 60.45, -0.01 72.24 M0.66 0.61 C0.81 12.42, 2.29 58.3, 2.39 70.39" stroke="#1e1e1e" stroke-width="2" fill="none"></path></g></g><mask></mask><g stroke-linecap="round"><g transform="translate(611.3390490065161 469.7558405706356) rotate(0 -31.61480536319209 13.295946180781755)"><path d="M1.19 0.14 C-9.11 4.58, -51.32 22.19, -62.25 26.54 M0.36 -0.83 C-9.97 3.82, -52.28 23.35, -62.68 28.05" stroke="#1e1e1e" stroke-width="2" fill="none"></path></g></g><mask></mask><g stroke-linecap="round"><g transform="translate(451.7876948371353 493.3930782253588) rotate(0 -21.864444830618936 -14.773273534201962)"><path d="M-0.13 0.73 C-7.44 -3.87, -36.58 -23.59, -44.03 -28.8 M-1.65 0.07 C-9.13 -4.77, -38.32 -25.56, -45.14 -30.53" stroke="#1e1e1e" stroke-width="2" fill="none"></path></g></g><mask></mask><g stroke-linecap="round"><g transform="translate(372.6029486938128 422.4813652611894) rotate(0 -3.545585648208487 -33.68306365798048)"><path d="M-1.07 -0.22 C-2.15 -11.33, -6.78 -56.01, -7.64 -67.06 M0.57 -1.38 C-0.62 -12.84, -7.69 -57.85, -8.87 -69.03" stroke="#1e1e1e" stroke-width="2" fill="none"></path></g></g><mask></mask><g stroke-linecap="round"><g transform="translate(362.5571226905555 313.15914110809496) rotate(0 5.318378472312702 -26.000961420195438)"><path d="M0.3 0.31 C2.16 -8.26, 9.59 -42.98, 11.4 -51.86 M-1 -0.57 C0.74 -8.88, 8.91 -41.66, 10.86 -50.25" stroke="#1e1e1e" stroke-width="2" fill="none"></path></g></g><mask></mask><g stroke-linecap="round"><g transform="translate(379.69411999022975 216.24646672373018) rotate(0 39.00144213029307 -15.06873900488597)"><path d="M-0.37 -1.04 C12.57 -6.01, 65.38 -25.41, 78.32 -30.24 M1.64 1.03 C14.39 -3.72, 64.51 -23.81, 77.54 -28.75" stroke="#1e1e1e" stroke-width="2" fill="none"></path></g></g><mask></mask><g stroke-linecap="round" transform="translate(455.84539699061827 80.95753896742667) rotate(0 50.38519463680802 20.316215276872924)"><path d="M10.16 0 C28.01 0.9, 48.91 -1.02, 90.61 0 M10.16 0 C39.74 1.23, 67.23 1.27, 90.61 0 M90.61 0 C98.96 -0.93, 101.75 1.98, 100.77 10.16 M90.61 0 C95.48 1.13, 100.13 4.15, 100.77 10.16 M100.77 10.16 C100.87 16.61, 102.74 24.08, 100.77 30.47 M100.77 10.16 C101.09 17.97, 100.56 26.21, 100.77 30.47 M100.77 30.47 C102.39 37.69, 96.08 40.78, 90.61 40.63 M100.77 30.47 C100.48 36.79, 99.19 42.45, 90.61 40.63 M90.61 40.63 C71.94 42, 56.28 39.4, 10.16 40.63 M90.61 40.63 C60.11 40.08, 30.18 40.24, 10.16 40.63 M10.16 40.63 C1.62 42.35, 1.69 35.62, 0 30.47 M10.16 40.63 C2.4 41.51, -2.12 37.57, 0 30.47 M0 30.47 C-2.01 24.75, -0.11 22.33, 0 10.16 M0 30.47 C0.45 26.33, -0.54 21.55, 0 10.16 M0 10.16 C-1.66 5.36, 2.6 -1.63, 10.16 0 M0 10.16 C1.56 1.51, 2.08 -2.06, 10.16 0" stroke="#1e1e1e" stroke-width="2" fill="none"></path></g><g transform="translate(472.810623976059 88.7737542442996) rotate(0 33.41996765136719 12.5)"><text x="33.41996765136719" y="17.52" font-family="Virgil, Segoe UI Emoji" font-size="20px" fill="#1e1e1e" text-anchor="middle" style="white-space: pre;" direction="ltr" dominant-baseline="alphabetic">Router</text></g><g stroke-linecap="round" transform="translate(456.3905019287289 10) rotate(0 50.38519463680802 20.316215276872924)"><path d="M10.16 0 C43.58 0.18, 74.5 -1.02, 90.61 0 M10.16 0 C31.69 -1.3, 52.86 -0.78, 90.61 0 M90.61 0 C96.99 1.57, 102.35 1.64, 100.77 10.16 M90.61 0 C99.28 -1.16, 98.98 5.43, 100.77 10.16 M100.77 10.16 C100.76 16.73, 100.13 20.58, 100.77 30.47 M100.77 10.16 C101.5 17.14, 99.83 22, 100.77 30.47 M100.77 30.47 C101.54 35.4, 97.66 39.49, 90.61 40.63 M100.77 30.47 C102.88 36.9, 95.29 39.72, 90.61 40.63 M90.61 40.63 C65.3 39.59, 42.43 41.21, 10.16 40.63 M90.61 40.63 C72.51 39.57, 51.62 40.64, 10.16 40.63 M10.16 40.63 C1.76 39.5, -1.79 38.89, 0 30.47 M10.16 40.63 C3.86 41.97, 0.07 37.5, 0 30.47 M0 30.47 C-0.64 23.45, 1.25 20.45, 0 10.16 M0 30.47 C1.15 22.78, 0.77 14.96, 0 10.16 M0 10.16 C0.51 4.46, 4.64 -0.17, 10.16 0 M0 10.16 C-0.25 5.32, 5.46 1.67, 10.16 0" stroke="#1e1e1e" stroke-width="2" fill="none"></path></g><g transform="translate(476.8057258624118 17.816215276872924) rotate(0 29.969970703125 12.5)"><text x="29.969970703125" y="17.52" font-family="Virgil, Segoe UI Emoji" font-size="20px" fill="#1e1e1e" text-anchor="middle" style="white-space: pre;" direction="ltr" dominant-baseline="alphabetic">Switch</text></g><g stroke-linecap="round"><g transform="translate(506.15334144299743 150.6531322318736) rotate(0 0.37271565511241533 -14.425647704274041)"><path d="M-0.11 0.05 C0.03 -4.73, 1.09 -24.45, 1.22 -29.27 M0.83 -0.39 C0.92 -5.08, 1.12 -24.14, 1.03 -28.79" stroke="#1e1e1e" stroke-width="2" fill="none"></path></g></g><mask></mask><g stroke-linecap="round"><g transform="translate(509.1852463342665 80.00024035504885) rotate(0 0 -14.477808063517926)"><path d="M0.55 0.05 C0.62 -4.93, 0.5 -24.65, 0.48 -29.48 M0.17 -0.4 C0.21 -5.37, 0.28 -24.4, 0.29 -29.05" stroke="#1e1e1e" stroke-width="2" fill="none"></path></g></g><mask></mask><g stroke-linecap="round" transform="translate(726.1419654837138 213.17575375231314) rotate(0 50.38519463680802 20.316215276872924)"><path d="M10.16 0 C37.61 -2.4, 65.89 0.07, 90.61 0 M10.16 0 C32.79 -1.05, 56.07 -0.69, 90.61 0 M90.61 0 C96.85 0.25, 99 2.94, 100.77 10.16 M90.61 0 C97.21 1.94, 102.51 4.35, 100.77 10.16 M100.77 10.16 C101.82 17.52, 98.7 23.24, 100.77 30.47 M100.77 10.16 C101.33 16.09, 100.33 20.27, 100.77 30.47 M100.77 30.47 C101.34 35.99, 99.24 39.89, 90.61 40.63 M100.77 30.47 C100.16 36.58, 97.6 38.86, 90.61 40.63 M90.61 40.63 C69.53 38.85, 48.99 40.63, 10.16 40.63 M90.61 40.63 C62.55 40.91, 36.31 41.33, 10.16 40.63 M10.16 40.63 C5.2 42.04, 1.58 38.02, 0 30.47 M10.16 40.63 C1.09 39.05, -0.32 36.04, 0 30.47 M0 30.47 C1.63 23.69, -0.15 17.96, 0 10.16 M0 30.47 C0.26 25.27, 1.01 18.42, 0 10.16 M0 10.16 C1.65 2.86, 4.53 -0.34, 10.16 0 M0 10.16 C-0.86 3.88, 1.89 -1.96, 10.16 0" stroke="#1e1e1e" stroke-width="2" fill="none"></path></g><g transform="translate(743.1071924691545 220.991969029186) rotate(0 33.41996765136719 12.5)"><text x="33.41996765136719" y="17.52" font-family="Virgil, Segoe UI Emoji" font-size="20px" fill="#1e1e1e" text-anchor="middle" style="white-space: pre;" direction="ltr" dominant-baseline="alphabetic">Router</text></g><g stroke-linecap="round" transform="translate(865.5558416433229 216.08458245589628) rotate(0 50.38519463680802 20.316215276872924)"><path d="M10.16 0 C26.57 -1.87, 45.13 -0.92, 90.61 0 M10.16 0 C30.65 0.17, 50.8 -0.18, 90.61 0 M90.61 0 C97.23 1.69, 102.28 4.22, 100.77 10.16 M90.61 0 C97.6 -0.82, 99.54 4.68, 100.77 10.16 M100.77 10.16 C99.49 17.28, 100.49 25.65, 100.77 30.47 M100.77 10.16 C100.97 17.53, 101.61 25.78, 100.77 30.47 M100.77 30.47 C100.24 36.67, 97.57 39.09, 90.61 40.63 M100.77 30.47 C100.02 36.01, 96.33 41.11, 90.61 40.63 M90.61 40.63 C72.97 41.25, 53.76 39.53, 10.16 40.63 M90.61 40.63 C65.37 41.88, 39.1 41.56, 10.16 40.63 M10.16 40.63 C1.39 39.25, -0.28 36.2, 0 30.47 M10.16 40.63 C4.15 41.02, -1.93 39.16, 0 30.47 M0 30.47 C-0.2 23.45, -0.27 18.64, 0 10.16 M0 30.47 C0.64 22.75, 0.39 15.38, 0 10.16 M0 10.16 C-0.75 3.81, 2.08 -1.71, 10.16 0 M0 10.16 C0.31 2.93, 4.61 -1.99, 10.16 0" stroke="#1e1e1e" stroke-width="2" fill="none"></path></g><g transform="translate(885.9710655770058 223.90079773276915) rotate(0 29.969970703125 12.5)"><text x="29.969970703125" y="17.52" font-family="Virgil, Segoe UI Emoji" font-size="20px" fill="#1e1e1e" text-anchor="middle" style="white-space: pre;" direction="ltr" dominant-baseline="alphabetic">Switch</text></g><g stroke-linecap="round" transform="translate(861.964429991857 307.04212142332295) rotate(0 50.38519463680802 20.316215276872924)"><path d="M10.16 0 C34.8 0.48, 58.65 -0.61, 90.61 0 M10.16 0 C30.01 0.44, 52.34 -0.07, 90.61 0 M90.61 0 C97.61 0.61, 102.74 2.7, 100.77 10.16 M90.61 0 C99.3 -2.09, 102.3 1.93, 100.77 10.16 M100.77 10.16 C101.96 15.42, 99.99 22.43, 100.77 30.47 M100.77 10.16 C100.72 15.65, 100.68 22.39, 100.77 30.47 M100.77 30.47 C99.12 36.68, 98.18 39.52, 90.61 40.63 M100.77 30.47 C101.87 35.82, 96.96 41.96, 90.61 40.63 M90.61 40.63 C73.75 42.73, 58.35 41.25, 10.16 40.63 M90.61 40.63 C64.86 40.25, 41.63 41.08, 10.16 40.63 M10.16 40.63 C5.12 39.47, -0.83 35.84, 0 30.47 M10.16 40.63 C2.62 39.34, 1.82 35.7, 0 30.47 M0 30.47 C-1.54 25.22, 0.88 16.58, 0 10.16 M0 30.47 C-0.21 23.85, -0.45 17.92, 0 10.16 M0 10.16 C-0.51 3.22, 1.67 -0.27, 10.16 0 M0 10.16 C-0.75 2.1, 3.74 1.57, 10.16 0" stroke="#1e1e1e" stroke-width="2" fill="none"></path></g><g transform="translate(882.3796539255399 314.8583367001958) rotate(0 29.969970703125 12.5)"><text x="29.969970703125" y="17.52" font-family="Virgil, Segoe UI Emoji" font-size="20px" fill="#1e1e1e" text-anchor="middle" style="white-space: pre;" direction="ltr" dominant-baseline="alphabetic">Switch</text></g><g stroke-linecap="round" transform="translate(715.2097430684047 309.707370661841) rotate(0 50.38519463680802 20.316215276872924)"><path d="M10.16 0 C30.39 0.22, 48.1 0.73, 90.61 0 M10.16 0 C36.76 0.18, 63.96 0.05, 90.61 0 M90.61 0 C98.75 -0.64, 99.22 5.24, 100.77 10.16 M90.61 0 C99.24 1.81, 98.55 4.22, 100.77 10.16 M100.77 10.16 C102 14.2, 101.55 18.3, 100.77 30.47 M100.77 10.16 C99.95 17.6, 99.93 24.07, 100.77 30.47 M100.77 30.47 C101.55 35.44, 97.57 40.68, 90.61 40.63 M100.77 30.47 C98.65 36.41, 99.05 42.85, 90.61 40.63 M90.61 40.63 C68.66 39.52, 43.78 42.11, 10.16 40.63 M90.61 40.63 C68.89 41.63, 49.45 40.48, 10.16 40.63 M10.16 40.63 C2.36 41.64, 0.22 36.65, 0 30.47 M10.16 40.63 C1.13 39.41, -1.77 39.28, 0 30.47 M0 30.47 C0.71 23.76, -1.76 14.66, 0 10.16 M0 30.47 C0.68 25.73, -0.65 20.43, 0 10.16 M0 10.16 C0.45 4.4, 5.29 -1.31, 10.16 0 M0 10.16 C0.81 2.95, 5.56 -1.93, 10.16 0" stroke="#1e1e1e" stroke-width="2" fill="none"></path></g><g transform="translate(732.1749700538454 317.5235859387139) rotate(0 33.41996765136719 12.5)"><text x="33.41996765136719" y="17.52" font-family="Virgil, Segoe UI Emoji" font-size="20px" fill="#1e1e1e" text-anchor="middle" style="white-space: pre;" direction="ltr" dominant-baseline="alphabetic">Router</text></g><g stroke-linecap="round" transform="translate(696.8450578827368 424.8930782253588) rotate(0 50.38519463680802 20.316215276872924)"><path d="M10.16 0 C32.18 -1.01, 57.58 0.32, 90.61 0 M10.16 0 C37.83 -0.28, 67.45 -0.03, 90.61 0 M90.61 0 C98.88 1.22, 100.49 4.29, 100.77 10.16 M90.61 0 C96.88 -0.77, 99.3 3.88, 100.77 10.16 M100.77 10.16 C99.83 14.56, 99.02 20.04, 100.77 30.47 M100.77 10.16 C99.93 15.16, 101.38 19.41, 100.77 30.47 M100.77 30.47 C101.55 35.64, 99.18 40.87, 90.61 40.63 M100.77 30.47 C100.86 37.51, 99.02 41.58, 90.61 40.63 M90.61 40.63 C66.32 40.27, 43.64 38.64, 10.16 40.63 M90.61 40.63 C63.36 41.04, 36.36 40.56, 10.16 40.63 M10.16 40.63 C2.57 40.12, 0.35 37.24, 0 30.47 M10.16 40.63 C4.28 41.28, -1.58 39.44, 0 30.47 M0 30.47 C-0.97 23.22, -1.41 15.09, 0 10.16 M0 30.47 C0.41 25.82, -0.12 22.59, 0 10.16 M0 10.16 C-1.03 2.08, 4.8 0.19, 10.16 0 M0 10.16 C-2.01 2.72, 3.65 -0.99, 10.16 0" stroke="#1e1e1e" stroke-width="2" fill="none"></path></g><g transform="translate(713.8102848681775 432.7092935022317) rotate(0 33.41996765136719 12.5)"><text x="33.41996765136719" y="17.52" font-family="Virgil, Segoe UI Emoji" font-size="20px" fill="#1e1e1e" text-anchor="middle" style="white-space: pre;" direction="ltr" dominant-baseline="alphabetic">Router</text></g><g stroke-linecap="round" transform="translate(454.4944368022574 569.2390819351385) rotate(0 50.38519463680802 20.316215276872924)"><path d="M10.16 0 C29.5 -1.33, 44.65 1.21, 90.61 0 M10.16 0 C31.26 -0.48, 53.62 -0.84, 90.61 0 M90.61 0 C96.19 -0.82, 101.21 3.07, 100.77 10.16 M90.61 0 C95.4 -2.29, 99.26 5.64, 100.77 10.16 M100.77 10.16 C101.12 15.22, 100.5 17.71, 100.77 30.47 M100.77 10.16 C100.22 14.54, 100.1 20.45, 100.77 30.47 M100.77 30.47 C102 38.07, 96.84 42.29, 90.61 40.63 M100.77 30.47 C99.34 37.62, 98.03 41.75, 90.61 40.63 M90.61 40.63 C67.19 42.64, 47.48 41.19, 10.16 40.63 M90.61 40.63 C60.65 40.87, 28.97 41.71, 10.16 40.63 M10.16 40.63 C1.76 40.55, 1.51 37.47, 0 30.47 M10.16 40.63 C1.8 40.04, 2.18 35.46, 0 30.47 M0 30.47 C0.54 25.91, 1.89 19.17, 0 10.16 M0 30.47 C0.97 24.07, 0.99 18.01, 0 10.16 M0 10.16 C1.02 5.05, 3.11 -1.38, 10.16 0 M0 10.16 C-1.65 2.83, 3.67 2.25, 10.16 0" stroke="#1e1e1e" stroke-width="2" fill="none"></path></g><g transform="translate(471.4596637876981 577.0552972120113) rotate(0 33.41996765136719 12.5)"><text x="33.41996765136719" y="17.52" font-family="Virgil, Segoe UI Emoji" font-size="20px" fill="#1e1e1e" text-anchor="middle" style="white-space: pre;" direction="ltr" dominant-baseline="alphabetic">Router</text></g><g stroke-linecap="round" transform="translate(163.14276582084756 425.3923571602125) rotate(0 50.38519463680802 20.316215276872924)"><path d="M10.16 0 C32.14 -0.55, 52.39 0.14, 90.61 0 M10.16 0 C32.21 -0.14, 55.48 -0.41, 90.61 0 M90.61 0 C99.27 -1.27, 99.99 2.64, 100.77 10.16 M90.61 0 C96.69 -2.24, 100.9 4.07, 100.77 10.16 M100.77 10.16 C100.03 13.44, 102.54 22.2, 100.77 30.47 M100.77 10.16 C100.76 17.52, 100.03 24.02, 100.77 30.47 M100.77 30.47 C101.85 36.89, 97.68 40.87, 90.61 40.63 M100.77 30.47 C102.7 36.86, 97.33 42.66, 90.61 40.63 M90.61 40.63 C63.42 40.46, 31.05 42.2, 10.16 40.63 M90.61 40.63 C70.3 40.07, 50.22 41.71, 10.16 40.63 M10.16 40.63 C4.72 40.64, -0.43 37.23, 0 30.47 M10.16 40.63 C4.89 38.9, -2.25 39.49, 0 30.47 M0 30.47 C1.49 22.82, 1.25 18.25, 0 10.16 M0 30.47 C0.94 21.91, 0.98 14.23, 0 10.16 M0 10.16 C0.37 4.46, 2.49 -0.19, 10.16 0 M0 10.16 C2.22 1.8, 4.4 -1.38, 10.16 0" stroke="#1e1e1e" stroke-width="2" fill="none"></path></g><g transform="translate(180.10799280628828 433.20857243708537) rotate(0 33.41996765136719 12.5)"><text x="33.41996765136719" y="17.52" font-family="Virgil, Segoe UI Emoji" font-size="20px" fill="#1e1e1e" text-anchor="middle" style="white-space: pre;" direction="ltr" dominant-baseline="alphabetic">Router</text></g><g stroke-linecap="round" transform="translate(159.55135416938174 305.38755005923537) rotate(0 50.38519463680802 20.316215276872924)"><path d="M10.16 0 C37.15 0.16, 63.75 1.46, 90.61 0 M10.16 0 C38.67 0.95, 68.33 0.69, 90.61 0 M90.61 0 C96.6 -1.96, 101.29 3.05, 100.77 10.16 M90.61 0 C97.64 -1.58, 99.93 2.94, 100.77 10.16 M100.77 10.16 C99.76 19.14, 101.38 24.86, 100.77 30.47 M100.77 10.16 C100.89 13.83, 99.87 19.49, 100.77 30.47 M100.77 30.47 C99.99 36.57, 95.97 41.61, 90.61 40.63 M100.77 30.47 C100.46 36.81, 97.05 38.87, 90.61 40.63 M90.61 40.63 C66.46 41.58, 45.51 38.18, 10.16 40.63 M90.61 40.63 C72.38 41.92, 54.75 41.68, 10.16 40.63 M10.16 40.63 C3.82 39.46, 0.45 37, 0 30.47 M10.16 40.63 C3.4 40.44, 0.58 37.89, 0 30.47 M0 30.47 C-0.89 23.39, 2.11 17.21, 0 10.16 M0 30.47 C-0.89 25.03, -0.26 19.78, 0 10.16 M0 10.16 C-1.13 4.36, 5.31 -1.74, 10.16 0 M0 10.16 C-0.69 4.11, 4.86 -0.48, 10.16 0" stroke="#1e1e1e" stroke-width="2" fill="none"></path></g><g transform="translate(176.51658115482246 313.20376533610823) rotate(0 33.41996765136719 12.5)"><text x="33.41996765136719" y="17.52" font-family="Virgil, Segoe UI Emoji" font-size="20px" fill="#1e1e1e" text-anchor="middle" style="white-space: pre;" direction="ltr" dominant-baseline="alphabetic">Router</text></g><g stroke-linecap="round" transform="translate(161.86925193159686 213.74742814392602) rotate(0 50.38519463680802 20.316215276872924)"><path d="M10.16 0 C35.84 -1.62, 63.24 0.95, 90.61 0 M10.16 0 C29.99 0.64, 48.61 0.21, 90.61 0 M90.61 0 C98.88 1.56, 101.66 4.51, 100.77 10.16 M90.61 0 C97.07 -1.85, 98.88 1.9, 100.77 10.16 M100.77 10.16 C99.89 17.68, 99.09 21.07, 100.77 30.47 M100.77 10.16 C101.65 14.86, 100.47 21.42, 100.77 30.47 M100.77 30.47 C101.61 38.66, 99.24 39.94, 90.61 40.63 M100.77 30.47 C100.61 38.13, 98.81 41.17, 90.61 40.63 M90.61 40.63 C70.33 39.73, 51.26 39.05, 10.16 40.63 M90.61 40.63 C67.07 39.39, 45.81 40.12, 10.16 40.63 M10.16 40.63 C4.84 39.8, 0.65 39.07, 0 30.47 M10.16 40.63 C2.67 38.34, 2.08 37.25, 0 30.47 M0 30.47 C-0.51 21.57, 1.38 14.21, 0 10.16 M0 30.47 C0.64 25.59, -0.85 21.49, 0 10.16 M0 10.16 C-0.46 4.52, 2.16 -2, 10.16 0 M0 10.16 C-1.87 4.81, 3.39 1.11, 10.16 0" stroke="#1e1e1e" stroke-width="2" fill="none"></path></g><g transform="translate(178.8344789170376 221.56364342079888) rotate(0 33.41996765136719 12.5)"><text x="33.41996765136719" y="17.52" font-family="Virgil, Segoe UI Emoji" font-size="20px" fill="#1e1e1e" text-anchor="middle" style="white-space: pre;" direction="ltr" dominant-baseline="alphabetic">Router</text></g><g stroke-linecap="round" transform="translate(836.2589340423455 427.8019069289422) rotate(0 50.38519463680802 20.316215276872924)"><path d="M10.16 0 C39.34 0.94, 66.55 2.25, 90.61 0 M10.16 0 C30.55 0.11, 51.43 1.15, 90.61 0 M90.61 0 C97.1 0.91, 100.33 2.72, 100.77 10.16 M90.61 0 C95.92 0.5, 98.7 4.2, 100.77 10.16 M100.77 10.16 C98.84 18.16, 99.64 24.39, 100.77 30.47 M100.77 10.16 C101.1 17.11, 100.97 24.95, 100.77 30.47 M100.77 30.47 C102.57 37.48, 97.46 40.86, 90.61 40.63 M100.77 30.47 C102.4 38.19, 97 40.97, 90.61 40.63 M90.61 40.63 C69.21 39.07, 51.45 39.29, 10.16 40.63 M90.61 40.63 C66.14 40.68, 39.57 40.61, 10.16 40.63 M10.16 40.63 C3.73 40.63, 0.78 37.81, 0 30.47 M10.16 40.63 C1.81 42.83, 0.96 37.08, 0 30.47 M0 30.47 C-1.32 21.44, -1.84 13.93, 0 10.16 M0 30.47 C-0.32 25.71, -0.57 19.55, 0 10.16 M0 10.16 C1.42 3.58, 1.64 -0.58, 10.16 0 M0 10.16 C0.27 2.39, 2.99 0.47, 10.16 0" stroke="#1e1e1e" stroke-width="2" fill="none"></path></g><g transform="translate(856.6741579760284 435.61812220581504) rotate(0 29.969970703125 12.5)"><text x="29.969970703125" y="17.52" font-family="Virgil, Segoe UI Emoji" font-size="20px" fill="#1e1e1e" text-anchor="middle" style="white-space: pre;" direction="ltr" dominant-baseline="alphabetic">Switch</text></g><g stroke-linecap="round" transform="translate(459.19916744625414 652.3098386455545) rotate(0 50.38519463680802 20.316215276872924)"><path d="M10.16 0 C30.25 1.53, 50.68 2.13, 90.61 0 M10.16 0 C34.96 -0.44, 59.87 -0.11, 90.61 0 M90.61 0 C97.83 -0.32, 99.05 1.4, 100.77 10.16 M90.61 0 C95.88 2.25, 98.64 2.66, 100.77 10.16 M100.77 10.16 C100.6 16.32, 99.82 26.2, 100.77 30.47 M100.77 10.16 C99.74 17.03, 101.23 24.08, 100.77 30.47 M100.77 30.47 C100.22 38.91, 96.14 40.96, 90.61 40.63 M100.77 30.47 C101.41 38.36, 96.91 41.25, 90.61 40.63 M90.61 40.63 C61.68 41.07, 30.81 39.98, 10.16 40.63 M90.61 40.63 C61.2 40.97, 31.12 40.37, 10.16 40.63 M10.16 40.63 C4.89 40.86, -1.38 36.73, 0 30.47 M10.16 40.63 C5.57 38.85, 0.11 36.57, 0 30.47 M0 30.47 C1.78 25.16, -0.13 16.87, 0 10.16 M0 30.47 C0.72 22.14, 0.33 15.53, 0 10.16 M0 10.16 C-0.28 2.01, 1.95 -0.48, 10.16 0 M0 10.16 C0.29 5.64, 2.59 2.12, 10.16 0" stroke="#1e1e1e" stroke-width="2" fill="none"></path></g><g transform="translate(479.61439137993705 660.1260539224274) rotate(0 29.969970703125 12.5)"><text x="29.969970703125" y="17.52" font-family="Virgil, Segoe UI Emoji" font-size="20px" fill="#1e1e1e" text-anchor="middle" style="white-space: pre;" direction="ltr" dominant-baseline="alphabetic">Switch</text></g><g stroke-linecap="round" transform="translate(13.591411651465819 418.8462908019065) rotate(0 50.38519463680802 20.316215276872924)"><path d="M10.16 0 C25.3 -0.09, 42.78 -1.26, 90.61 0 M10.16 0 C32.48 -0.34, 55.73 -0.37, 90.61 0 M90.61 0 C96.61 -0.75, 100.17 1.43, 100.77 10.16 M90.61 0 C97.51 0.69, 99.78 1.59, 100.77 10.16 M100.77 10.16 C102.64 17.92, 101.88 20.72, 100.77 30.47 M100.77 10.16 C100.24 14.95, 101.34 20.94, 100.77 30.47 M100.77 30.47 C101.06 37.48, 99.06 40.3, 90.61 40.63 M100.77 30.47 C100.71 39.28, 98.72 41.99, 90.61 40.63 M90.61 40.63 C62.83 41.9, 37.99 38.95, 10.16 40.63 M90.61 40.63 C62.75 40.59, 35.64 39.89, 10.16 40.63 M10.16 40.63 C2.95 40.62, 1.31 35.74, 0 30.47 M10.16 40.63 C1.14 42.88, -0.17 37.67, 0 30.47 M0 30.47 C1.13 22.91, 1.64 15.1, 0 10.16 M0 30.47 C0.72 22.18, 0.01 15.25, 0 10.16 M0 10.16 C-0.9 3.19, 5.32 -1.38, 10.16 0 M0 10.16 C1.01 2, 5.44 2.22, 10.16 0" stroke="#1e1e1e" stroke-width="2" fill="none"></path></g><g transform="translate(34.00663558514873 426.66250607877936) rotate(0 29.969970703125 12.5)"><text x="29.969970703125" y="17.52" font-family="Virgil, Segoe UI Emoji" font-size="20px" fill="#1e1e1e" text-anchor="middle" style="white-space: pre;" direction="ltr" dominant-baseline="alphabetic">Switch</text></g><g stroke-linecap="round" transform="translate(10 298.84148370092936) rotate(0 50.38519463680802 20.316215276872924)"><path d="M10.16 0 C28.99 0.99, 46.11 -1.21, 90.61 0 M10.16 0 C27.12 -0.22, 43.28 -1.15, 90.61 0 M90.61 0 C97.9 -0.34, 100.99 2.01, 100.77 10.16 M90.61 0 C96.54 -0.45, 102.96 3.24, 100.77 10.16 M100.77 10.16 C101.29 16.87, 98.89 25.25, 100.77 30.47 M100.77 10.16 C100.02 17.85, 100.43 23.67, 100.77 30.47 M100.77 30.47 C99.36 38.22, 97.12 40.25, 90.61 40.63 M100.77 30.47 C100.44 35.48, 96.95 41.26, 90.61 40.63 M90.61 40.63 C71.16 39.2, 49.99 41.68, 10.16 40.63 M90.61 40.63 C61.06 41.64, 30.61 40.6, 10.16 40.63 M10.16 40.63 C3.84 40.39, 0.01 37.08, 0 30.47 M10.16 40.63 C3.96 41.28, 0.16 35.5, 0 30.47 M0 30.47 C2.06 23.42, -0.18 18.2, 0 10.16 M0 30.47 C-0.06 26.73, -0.39 21.65, 0 10.16 M0 10.16 C1.93 1.65, 2.79 0.63, 10.16 0 M0 10.16 C1.48 2.9, 2.39 1.08, 10.16 0" stroke="#1e1e1e" stroke-width="2" fill="none"></path></g><g transform="translate(30.41522393368291 306.6576989778022) rotate(0 29.969970703125 12.5)"><text x="29.969970703125" y="17.52" font-family="Virgil, Segoe UI Emoji" font-size="20px" fill="#1e1e1e" text-anchor="middle" style="white-space: pre;" direction="ltr" dominant-baseline="alphabetic">Switch</text></g><g stroke-linecap="round" transform="translate(12.317897762215125 207.20136178562) rotate(0 50.38519463680802 20.316215276872924)"><path d="M10.16 0 C32.91 1.44, 51.72 2.47, 90.61 0 M10.16 0 C27.47 -0.43, 47.02 0.76, 90.61 0 M90.61 0 C98.27 1.12, 100.49 1.78, 100.77 10.16 M90.61 0 C95.5 -1.49, 101.03 1.59, 100.77 10.16 M100.77 10.16 C99.17 16.11, 99.76 27.5, 100.77 30.47 M100.77 10.16 C100.41 17.37, 101.33 23.34, 100.77 30.47 M100.77 30.47 C102.63 36.55, 97.25 41.4, 90.61 40.63 M100.77 30.47 C102.2 37.79, 95.88 41.66, 90.61 40.63 M90.61 40.63 C60.91 38.13, 34.13 38.53, 10.16 40.63 M90.61 40.63 C72.64 40.1, 53.92 39.65, 10.16 40.63 M10.16 40.63 C4.03 42.46, -0.62 35.25, 0 30.47 M10.16 40.63 C5.46 40.63, 1.9 37.98, 0 30.47 M0 30.47 C1.49 23.69, -1.65 17.07, 0 10.16 M0 30.47 C-1.08 24.46, -0.33 19.46, 0 10.16 M0 10.16 C-1.22 1.39, 1.76 1.24, 10.16 0 M0 10.16 C0 4.49, 1.27 0.71, 10.16 0" stroke="#1e1e1e" stroke-width="2" fill="none"></path></g><g transform="translate(32.733121695898035 215.01757706249288) rotate(0 29.969970703125 12.5)"><text x="29.969970703125" y="17.52" font-family="Virgil, Segoe UI Emoji" font-size="20px" fill="#1e1e1e" text-anchor="middle" style="white-space: pre;" direction="ltr" dominant-baseline="alphabetic">Switch</text></g><g stroke-linecap="round"><g transform="translate(314.1007854983724 240.47463531982174) rotate(0 -25.11456500814336 -3.54558564820843)"><path d="M0.95 0.99 C-7.27 -0.18, -41.73 -4.7, -50.24 -6.04 M-0.02 0.46 C-8.31 -1.1, -42.73 -6.58, -51.2 -7.61" stroke="#1e1e1e" stroke-width="2" fill="none"></path></g></g><mask></mask><g stroke-linecap="round"><g transform="translate(161.64060262540818 236.92904967161343) rotate(0 -23.9327031254071 -3.5455856482085437)"><path d="M-0.43 -0.41 C-8.39 -1.53, -40.13 -5.64, -48.03 -6.77 M0.35 0.56 C-7.68 -0.71, -40.47 -6.36, -48.54 -7.58" stroke="#1e1e1e" stroke-width="2" fill="none"></path></g></g><mask></mask><g stroke-linecap="round"><g transform="translate(303.46402855374697 334.4326549973462) rotate(0 -23.04630671335508 -2.9546547068403584)"><path d="M0.33 -0.04 C-7.4 -1.04, -38.27 -4.66, -45.99 -5.7 M-0.16 -0.53 C-7.99 -1.73, -38.68 -5.68, -46.37 -6.56" stroke="#1e1e1e" stroke-width="2" fill="none"></path></g></g><mask></mask><g stroke-linecap="round"><g transform="translate(161.64060262540818 324.38682899408894) rotate(0 -25.705495949511374 -2.0682582947882793)"><path d="M1.03 -0.95 C-7.37 -1.44, -41.5 -3.09, -50.28 -3.46 M0.11 1.16 C-8.36 0.38, -41.85 -4.2, -50.64 -5.23" stroke="#1e1e1e" stroke-width="2" fill="none"></path></g></g><mask></mask><g stroke-linecap="round"><g transform="translate(307.60054514332353 445.52767197454494) rotate(0 -21.864444830618936 0)"><path d="M0.04 0.19 C-7.29 0.12, -36.64 -0.29, -43.88 -0.37 M-0.61 -0.18 C-8.03 -0.2, -37.23 0.07, -44.39 0.13" stroke="#1e1e1e" stroke-width="2" fill="none"></path></g></g><mask></mask><g stroke-linecap="round"><g transform="translate(162.82246450814444 444.3458100918087) rotate(0 -23.63723765472315 -2.954654706840415)"><path d="M-0.52 -0.5 C-8.43 -1.46, -39.53 -4.88, -47.24 -5.76 M0.22 0.43 C-7.78 -0.7, -39.81 -5.73, -47.66 -6.66" stroke="#1e1e1e" stroke-width="2" fill="none"></path></g></g><mask></mask><g stroke-linecap="round"><g transform="translate(506.4854512970213 532.753700743735) rotate(0 0.05216035924388507 17.727928241042378)"><path d="M-0.34 0.37 C-0.39 6.34, -0.49 30.02, -0.42 35.89 M0.49 0.08 C0.6 5.9, 0.68 29.13, 0.55 35.15" stroke="#1e1e1e" stroke-width="2" fill="none"></path></g></g><mask></mask><g stroke-linecap="round"><g transform="translate(509.28956705275425 610.4746548006672) rotate(0 0.39780548029705187 21.23488879703649)"><path d="M0.52 0.17 C0.67 7.29, 1 35.14, 1 42.24 M0.12 -0.22 C0.21 7.01, 0.69 35.81, 0.67 42.82" stroke="#1e1e1e" stroke-width="2" fill="none"></path></g></g><mask></mask><g stroke-linecap="round"><g transform="translate(673.9777287915323 440.20929350223224) rotate(0 10.636756944625404 1.4773273534201508)"><path d="M-0.49 0.07 C3.19 0.52, 17.96 2.55, 21.62 2.97 M0.26 -0.37 C3.94 0.15, 17.87 3.12, 21.36 3.67" stroke="#1e1e1e" stroke-width="2" fill="none"></path></g></g><mask></mask><g stroke-linecap="round"><g transform="translate(798.0732264788286 443.7548791504407) rotate(0 18.023393711726385 -0.29546547068406426)"><path d="M-0.37 0.29 C5.69 0.21, 30.25 -0.74, 36.33 -0.96 M0.44 -0.03 C6.46 -0.02, 30.16 -0.35, 36.05 -0.45" stroke="#1e1e1e" stroke-width="2" fill="none"></path></g></g><mask></mask><g stroke-linecap="round"><g transform="translate(674.5686597329003 332.06893123187393) rotate(0 21.56897935993493 -0.5909309413680717)"><path d="M0.13 0.23 C7.43 -0.01, 36.2 -0.91, 43.43 -1.07 M-0.46 -0.12 C6.82 -0.57, 35.84 -1.74, 43.15 -1.99" stroke="#1e1e1e" stroke-width="2" fill="none"></path></g></g><mask></mask><g stroke-linecap="round"><g transform="translate(818.1648784853431 331.4780002905058) rotate(0 21.273513889250808 0)"><path d="M-0.03 0.53 C7.06 0.66, 35.92 0.6, 43.01 0.54 M-0.71 0.32 C6.31 0.33, 35.68 0.05, 42.82 -0.14" stroke="#1e1e1e" stroke-width="2" fill="none"></path></g></g><mask></mask><g stroke-linecap="round"><g transform="translate(673.3867978501643 233.9743949647729) rotate(0 25.114565008143245 -0.5909309413680148)"><path d="M-0.97 0.82 C7.23 0.75, 41.68 -0.52, 50.33 -0.67 M0.72 0.2 C8.67 -0.2, 41.13 -2.19, 49.43 -2.52" stroke="#1e1e1e" stroke-width="2" fill="none"></path></g></g><mask></mask><g stroke-linecap="round"><g transform="translate(827.6197735472325 234.56532590614103) rotate(0 19.50072106514665 1.1818618827362002)"><path d="M-0.23 -0.55 C6.27 -0.22, 32.06 1.52, 38.61 1.91 M0.66 0.36 C7.37 0.74, 33.3 2.08, 39.64 2.38" stroke="#1e1e1e" stroke-width="2" fill="none"></path></g></g><mask></mask><g transform="translate(662.2306514008882 172.54030541892104) rotate(0 41.15998077392578 12.5)"><text x="0" y="17.52" font-family="Virgil, Segoe UI Emoji" font-size="20px" fill="#1e1e1e" text-anchor="start" style="white-space: pre;" direction="ltr" dominant-baseline="alphabetic">10.10.0.0</text></g><g transform="translate(658.3612709635175 276.03020318193825) rotate(0 45.569976806640625 12.5)"><text x="0" y="17.52" font-family="Virgil, Segoe UI Emoji" font-size="20px" fill="#1e1e1e" text-anchor="start" style="white-space: pre;" direction="ltr" dominant-baseline="alphabetic">10.20.0.0</text></g><g transform="translate(662.1971018802418 382.6021854865933) rotate(0 45.259979248046875 12.5)"><text x="0" y="17.52" font-family="Virgil, Segoe UI Emoji" font-size="20px" fill="#1e1e1e" text-anchor="start" style="white-space: pre;" direction="ltr" dominant-baseline="alphabetic">10.30.0.0</text></g><g transform="translate(586.9260962282591 553.3842624087054) rotate(0 44.8499755859375 12.5)"><text x="0" y="17.52" font-family="Virgil, Segoe UI Emoji" font-size="20px" fill="#1e1e1e" text-anchor="start" style="white-space: pre;" direction="ltr" dominant-baseline="alphabetic">10.40.0.0</text></g><g transform="translate(209.0971247388194 384.10967823676566) rotate(0 44.629974365234375 12.5)"><text x="0" y="17.52" font-family="Virgil, Segoe UI Emoji" font-size="20px" fill="#1e1e1e" text-anchor="start" style="white-space: pre;" direction="ltr" dominant-baseline="alphabetic">10.50.0.0</text></g><g transform="translate(228.34337836373322 267.23053127267093) rotate(0 44.8499755859375 12.5)"><text x="0" y="17.52" font-family="Virgil, Segoe UI Emoji" font-size="20px" fill="#1e1e1e" text-anchor="start" style="white-space: pre;" direction="ltr" dominant-baseline="alphabetic">10.60.0.0</text></g><g transform="translate(240.39810139149188 173.98069912780022) rotate(0 43.829978942871094 12.500000000000028)"><text x="0" y="17.52" font-family="Virgil, Segoe UI Emoji" font-size="20px" fill="#1e1e1e" text-anchor="start" style="white-space: pre;" direction="ltr" dominant-baseline="alphabetic">10.70.0.0</text></g><g transform="translate(561.174959339983 62.23835973310196) rotate(0 46.0999755859375 12.5)"><text x="0" y="17.52" font-family="Virgil, Segoe UI Emoji" font-size="20px" fill="#1e1e1e" text-anchor="start" style="white-space: pre;" direction="ltr" dominant-baseline="alphabetic">10.80.0.0</text></g></svg>